# xmcd CD database file
#
# Track frame offsets:
#	150
#	9000
#	20971
#	34129
#	44579
#	53475
#	62293
#	71228
#	82306
#	93049
#	104585
#	115665
#
# Disc length: 1655 seconds
#
# Revision: 0
# Processed by: cddbd v1.5.2PL0 Copyright (c) Steve Scherf et al.
# Submitted via: CDex 1.95
#
DISCID=9806750c
DTITLE=Gene Autry - Gene Autry Favourites
DYEAR=1976
DGENRE=Country
TTITLE0=01 - You Are My Sunshine
TTITLE1=02 - I Hang My Head And Cry
TTITLE2=03 - Blues Stay Away from Me
TTITLE3=04 - San Antonio Rose
TTITLE4=05 - Tears On My Pillow
TTITLE5=06 - Be Honest With Me
TTITLE6=07 - Goodbye Littli Darlin`
TTITLE7=08 - Hang Your Head In Shame
TTITLE8=09 - Trouble In My Mind
TTITLE9=10 - Lonely River
TTITLE10=11 - You're The Only Star
TTITLE11=12 - Tweedle-O-Twill
EXTD=YEAR: 1976
EXTT0=
EXTT1=
EXTT2=
EXTT3=
EXTT4=
EXTT5=
EXTT6=
EXTT7=
EXTT8=
EXTT9=
EXTT10=
EXTT11=
PLAYORDER=
